# xmcd CD database file
#
# Track frame offsets:
#	150
#	13246
#	23706
#	32880
#	44268
#	57908
#	66827
#	80001
#	91048
#	106944
#	125534
#	134183
#	145859
#	157064
#	168285
#	184702
#	203278
#	216261
#	226822
#	236044
#
# Disc length: 3282 seconds
#
# Revision: 0
# Processed by: cddbd v1.5.1PL0 Copyright (c) Steve Scherf et al.
# Submitted via: CDex 1.51
#
DISCID=150cd014
DTITLE=Keith Burden - Western Favorites
DYEAR=1999
DGENRE=Country
TTITLE0=This Land Is Your Land
TTITLE1=Home On The Range
TTITLE2=Don't Fence Me In
TTITLE3=Get Along Little Dogies
TTITLE4=Red River Valley
TTITLE5=Oh Susannah
TTITLE6=Tumblin' Tumbleweeds
TTITLE7=Yellow Rose Of Texas
TTITLE8=Streets Of Laredo
TTITLE9=Ghost Riders
TTITLE10=Back In The Saddle Again
TTITLE11=You Are My Sunshine
TTITLE12=The Girl I Left Behind Me
TTITLE13=Cattle Call
TTITLE14=Cool Water
TTITLE15=Strawberry Roan
TTITLE16=I'm Gonna Leave Old Texas Now
TTITLE17=Springtime In The Rockies
TTITLE18=God Bless America
TTITLE19=Happy Trails
EXTD=YEAR: 1999
EXTT0=
EXTT1=
EXTT2=
EXTT3=
EXTT4=
EXTT5=
EXTT6=
EXTT7=
EXTT8=
EXTT9=
EXTT10=
EXTT11=
EXTT12=
EXTT13=
EXTT14=
EXTT15=
EXTT16=
EXTT17=
EXTT18=
EXTT19=
PLAYORDER=
